<?xml version="1.0" standalone="no"?><!DOCTYPE svg PUBLIC "-//W3C//DTD SVG 1.1//EN" "http://www.w3.org/Graphics/SVG/1.1/DTD/svg11.dtd"><svg t="1606807445068" class="icon" viewBox="0 0 1024 1024" version="1.1" xmlns="http://www.w3.org/2000/svg" p-id="2860" xmlns:xlink="http://www.w3.org/1999/xlink" width="200" height="200"><defs><style type="text/css"></style></defs><path d="M682.666667 85.333333a128 128 0 0 0-128 128v597.333334a128 128 0 0 0 256 0V213.333333a128 128 0 0 0-128-128z m42.666666 725.333334a42.666667 42.666667 0 0 1-85.333333 0V213.333333a42.666667 42.666667 0 0 1 85.333333 0zM341.333333 85.333333a128 128 0 0 0-128 128v597.333334a128 128 0 0 0 256 0V213.333333a128 128 0 0 0-128-128z m42.666667 725.333334a42.666667 42.666667 0 0 1-85.333333 0V213.333333a42.666667 42.666667 0 0 1 85.333333 0z" p-id="2861" fill="#d81e06"></path></svg>